<?xml version="1.0" encoding="UTF-8"?>
<svg version="1.1" xmlns="http://www.w3.org/2000/svg" width="500" height="500">
<path d="M0 0 C-1.24410764 14.13083453 -3.79981879 26.97498312 -11.765625 39.046875 C-13.15979942 41.08020601 -13.15979942 41.08020601 -14 44 C-14.66 44 -15.32 44 -16 44 C-16.0825 44.5775 -16.165 45.155 -16.25 45.75 C-17.21354807 48.64064422 -18.76616011 49.96923646 -21 52 C-21.66 52.66 -22.32 53.32 -23 54 C-36.63341067 66.72451662 -53.62057134 74.88917003 -72.43359375 75.140625 C-76 75 -76 75 -77 74 C-77.09492722 71.65746218 -77.12559791 69.34453896 -77.11352539 67.00170898 C-77.11367142 66.27004517 -77.11381744 65.53838135 -77.1139679 64.7845459 C-77.11326867 62.35503216 -77.10547585 59.92559417 -77.09765625 57.49609375 C-77.0957921 55.81600486 -77.09436819 54.13591543 -77.09336853 52.45582581 C-77.08954307 48.02526357 -77.07971256 43.5947339 -77.06866455 39.16418457 C-77.05845103 34.64657024 -77.05387104 30.12895066 -77.04882812 25.61132812 C-77.03809031 16.74087107 -77.02101356 7.87043824 -77 -1 C-67.4035894 -1.17692478 -57.80707052 -1.34288303 -48.21023083 -1.49477577 C-43.75421545 -1.56564888 -39.29833088 -1.64032298 -34.8425293 -1.72363281 C-30.54383219 -1.80386626 -26.24507755 -1.87418173 -21.94610023 -1.93757248 C-20.30456866 -1.96353068 -18.66308996 -1.99308496 -17.02168846 -2.02626419 C-14.72567599 -2.0720662 -12.42980956 -2.10517072 -10.13354492 -2.13525391 C-8.82560471 -2.15746002 -7.51766449 -2.17966614 -6.17008972 -2.20254517 C-3 -2 -3 -2 0 0 Z " fill="#000000" transform="translate(77,207)"/>
<path d="M0 0 C3.98340305 -0.09973852 7.96631108 -0.17187198 11.95068359 -0.21972656 C13.96347627 -0.24946045 15.97592134 -0.30031729 17.98828125 -0.3515625 C26.65650359 -0.43868031 32.11451745 0.12368083 39.0234375 5.60546875 C42.85395851 10.08917109 44.23390083 14.1750046 45 20 C45.81404297 19.36771484 45.81404297 19.36771484 46.64453125 18.72265625 C47.35996094 18.17480469 48.07539063 17.62695312 48.8125 17.0625 C49.52019531 16.51722656 50.22789062 15.97195312 50.95703125 15.41015625 C55.97865453 11.94398798 62.14937167 12.3064829 68 13 C70.99915077 14.30556639 73.47978324 15.92452738 76 18 C76.33 16.35 76.66 14.7 77 13 C80.63 13.33 84.26 13.66 88 14 C87.67 28.19 87.34 42.38 87 57 C83.41220825 57.89694794 80.65381163 58.08304117 77 58 C76.505 56.02 76.505 56.02 76 54 C75.030625 54.639375 74.06125 55.27875 73.0625 55.9375 C68.06016997 58.7557141 63.26879683 59.60158639 57.6015625 58.55859375 C50.60737383 56.52539937 46.32492906 52.60975032 42.78125 46.1796875 C41.15674566 41.6473204 41.15677773 36.77388177 41 32 C40.57460937 32.62519531 40.14921875 33.25039062 39.7109375 33.89453125 C36.36794451 38.00839706 31.07609864 39.22458465 26 40 C23.38284478 40.06780195 20.8020287 40.09477108 18.1875 40.0625 C15.815625 40.041875 13.44375 40.02125 11 40 C11 45.61 11 51.22 11 57 C8.59454362 58.20272819 7.05003047 58.10071472 4.375 58.0625 C3.14910156 58.04896484 3.14910156 58.04896484 1.8984375 58.03515625 C1.27195312 58.02355469 0.64546875 58.01195312 0 58 C-1.23613622 55.52772757 -1.12040349 53.90339788 -1.11352539 51.13891602 C-1.11344986 50.1276918 -1.11337433 49.11646759 -1.11329651 48.07460022 C-1.10813522 46.97877121 -1.10297394 45.8829422 -1.09765625 44.75390625 C-1.09553383 43.07082619 -1.09553383 43.07082619 -1.09336853 41.35374451 C-1.08775779 37.75663624 -1.07521056 34.15958952 -1.0625 30.5625 C-1.05748576 28.13997486 -1.05292272 25.71744874 -1.04882812 23.29492188 C-1.0389756 17.95775095 -1.02474957 12.62061187 -1.00672913 7.28346252 C-1.00153921 5.52231457 -1 3.7611556 -1 2 C-0.67 1.34 -0.34 0.68 0 0 Z M11 11 C11 16.94 11 22.88 11 29 C13.536875 29.103125 16.07375 29.20625 18.6875 29.3125 C19.47729248 29.35802002 20.26708496 29.40354004 21.08081055 29.45043945 C25.19692692 29.5311068 26.60685879 29.31472071 29.95703125 26.6328125 C32.13179729 23.83015034 33 22.5326999 33 19 C31.45641562 15.06385984 30.55160136 13.36773424 27 11 C24.22503673 10.85710797 21.58047807 10.81262458 18.8125 10.875 C16.234375 10.91625 13.65625 10.9575 11 11 Z M56 26 C52.98936905 29.73733498 52.16432994 33.23443187 52 38 C53.19563353 41.98544511 54.09002266 44.28159684 57.375 46.875 C61.34322036 48.57566587 63.77180257 49.25065254 68.0625 48.375 C71.50014406 46.76589001 72.92760226 45.14697435 75 42 C76.25641239 38.23076283 76.73402641 34.89817909 76 31 C74.13788027 27.40631506 71.86061512 24.71988085 68.03125 23.23828125 C63.28843742 22.39004746 60.00894471 23.20306183 56 26 Z M42 27 C43 29 43 29 43 29 Z " fill="#020202" transform="translate(108,209)"/>
<path d="M0 0 C3.66526714 3.74856867 5.67156322 6.92778685 7 12 C7.061875 11.319375 7.12375 10.63875 7.1875 9.9375 C8.67898093 4.54522278 11.37585469 1.00697009 16.125 -1.9375 C22.14094101 -4.05690154 28.70270763 -3.92697762 34.5625 -1.5625 C35.366875 -1.046875 36.17125 -0.53125 37 0 C37.99 0.495 37.99 0.495 39 1 C39.66 -0.32 40.32 -1.64 41 -3 C42.47906892 -3.02689216 43.95827483 -3.04634621 45.4375 -3.0625 C46.26121094 -3.07410156 47.08492188 -3.08570313 47.93359375 -3.09765625 C50 -3 50 -3 51 -2 C51.09268999 -0.64905018 51.11747326 0.70667091 51.11352539 2.06079102 C51.11341209 3.35201622 51.11341209 3.35201622 51.11329651 4.66932678 C51.10813522 5.60473801 51.10297394 6.54014923 51.09765625 7.50390625 C51.0962413 8.45692123 51.09482635 9.40993622 51.09336853 10.39183044 C51.08775152 13.44875165 51.07519616 16.50560077 51.0625 19.5625 C51.05748719 21.62955624 51.05292391 23.69661362 51.04882812 25.76367188 C51.03777656 30.84247588 51.02050055 35.9212257 51 41 C47.88450128 42.55774936 44.3955612 42.56480622 41 42 C39.24609375 40.484375 39.24609375 40.484375 38 39 C36.9275 39.680625 35.855 40.36125 34.75 41.0625 C29.15603057 43.82483181 23.96219429 43.49250211 18 42 C12.99830405 39.6330614 9.19014397 37.20441427 7 32 C7 32.66 7 33.32 7 34 C6.34 34 5.68 34 5 34 C4.7525 34.598125 4.505 35.19625 4.25 35.8125 C2.81927475 38.31626919 1.4308418 39.48072388 -1 41 C-1.66 41 -2.32 41 -3 41 C-3.33 41.66 -3.66 42.32 -4 43 C-11.57003717 44.70936323 -17.09078408 43.46010018 -24 40 C-28.63142469 36.50280176 -29.82005367 33.47066028 -31 28 C-29.33969118 26.33969118 -27.40246403 26.71081749 -25.125 26.625 C-22.36328125 26.63671875 -22.36328125 26.63671875 -20 27 C-18.3125 29.4375 -18.3125 29.4375 -17 32 C-13.38775116 32.98515877 -11.09106096 33.41963883 -7.5625 32.0625 C-7.046875 31.711875 -6.53125 31.36125 -6 31 C-6.495 28.525 -6.495 28.525 -7 26 C-7.99 26 -8.98 26 -10 26 C-10 25.34 -10 24.68 -10 24 C-10.65226562 23.97421875 -11.30453125 23.9484375 -11.9765625 23.921875 C-17.71272821 23.54961646 -21.52875703 22.92596944 -26 19 C-28.38713778 16.0558634 -28.96192889 14.34898522 -29.375 10.5625 C-28.95584139 6.58049317 -28.21933878 4.32900818 -26 1 C-18.17563333 -5.1596078 -8.45236595 -5.70043285 0 0 Z M-16.9375 7.25 C-18.20027041 8.94717809 -18.20027041 8.94717809 -17.84765625 11.01171875 C-17.18235744 13.17916829 -17.18235744 13.17916829 -15.03125 13.94140625 C-14.1959375 14.14636719 -13.360625 14.35132813 -12.5 14.5625 C-11.60152344 14.7996875 -10.70304687 15.036875 -9.77734375 15.28125 C-8.86082031 15.5184375 -7.94429687 15.755625 -7 16 C-5.3489738 16.50413014 -3.70259848 17.02387981 -2.0625 17.5625 C-1.35222656 17.79066406 -0.64195312 18.01882812 0.08984375 18.25390625 C2 19 2 19 5 21 C5.33 18.36 5.66 15.72 6 13 C2.91111478 10.94074319 2.29064073 10.7609626 -1.1875 10.875 C-2.445625 10.91625 -3.70375 10.9575 -5 11 C-5.433125 10.0409375 -5.433125 10.0409375 -5.875 9.0625 C-6.82823451 6.84793921 -6.82823451 6.84793921 -9 6 C-13.19523884 5.61107972 -13.19523884 5.61107972 -16.9375 7.25 Z M18.25 11.625 C16.31958586 15.29278687 15.88546276 18.87665922 16 23 C17.2416018 26.72480539 18.26243777 28.43712356 21.375 30.8125 C24.09121776 32.04126518 26.01664491 32.85447048 29 33 C33.10847669 31.4069172 36.43064871 29.61612404 39 26 C40.38276862 21.40563973 40.62982855 17.44217173 38.375 13.125 C36.00493339 10.00649131 34.60340355 8.45852048 31 7 C25.42170499 6.30271312 22.29091979 7.87271734 18.25 11.625 Z M6 29 C7 31 7 31 7 31 Z " fill="#020202" transform="translate(244,225)"/>
<path d="M0 0 C5.445 0.495 5.445 0.495 11 1 C11 4.96 11 8.92 11 13 C14.96 12.67 18.92 12.34 23 12 C24.73360665 15.46721329 23.48361845 19.23852315 23 23 C19.04 23 15.08 23 11 23 C11.495 34.385 11.495 34.385 12 46 C17.445 46.495 17.445 46.495 23 47 C23.495 51.455 23.495 51.455 24 56 C17.1923721 57.3319272 10.20214439 57.80120622 4 54.3125 C-1.04661775 48.47734823 -0.24151746 41.40285981 -0.125 34.125 C-0.11597656 33.05507812 -0.10695313 31.98515625 -0.09765625 30.8828125 C-0.07419342 28.25497561 -0.04136459 25.62760594 0 23 C-2.97 23 -5.94 23 -9 23 C-8.75552124 24.28414795 -8.75552124 24.28414795 -8.50610352 25.59423828 C-8.00638334 28.95704412 -7.88616854 32.09539294 -7.90234375 35.4921875 C-7.90556641 36.69101563 -7.90878906 37.88984375 -7.91210938 39.125 C-7.92467773 40.98125 -7.92467773 40.98125 -7.9375 42.875 C-7.94201172 44.13570312 -7.94652344 45.39640625 -7.95117188 46.6953125 C-7.9629204 49.79692386 -7.97934833 52.89843725 -8 56 C-11.47325181 57.1577506 -14.36067448 57.06866652 -18 57 C-18.66 55.35 -19.32 53.7 -20 52 C-20.78375 52.804375 -21.5675 53.60875 -22.375 54.4375 C-26.53540975 57.87350899 -30.7255798 58.24698947 -36 58 C-42.6047783 57.06414379 -46.34482282 54.2582595 -50.58984375 49.23046875 C-54.73654215 42.67156353 -54.82993248 35.51353768 -54 28 C-52.10779265 21.28541955 -48.62847572 16.5439874 -42.59765625 13 C-37.11695332 10.89013541 -31.16935153 10.75146758 -25.6796875 12.9140625 C-23.75 14 -23.75 14 -21 16 C-20.67 15.67 -20.34 15.34 -20 15 C-20 14.34 -20 13.68 -20 13 C-13.4 13 -6.8 13 0 13 C0 8.71 0 4.42 0 0 Z M-40 25 C-42.8572491 29.1380849 -43.60149403 32.88321906 -43.41015625 37.81640625 C-42.66388642 41.78940466 -41.05304016 43.33670965 -38 46 C-33.75174567 47.96678441 -31.82858619 48.23874517 -27.3125 46.9375 C-23.7125453 44.83186612 -21.95947526 43.68381348 -20 40 C-19.33685242 35.42578885 -19.48726094 31.41757269 -21.0625 27.0625 C-24.28514363 23.63194388 -28.01676395 22.28331944 -32.625 21.625 C-35.76874359 22.12138057 -37.49626104 23.02336398 -40 25 Z " fill="#020202" transform="translate(431,210)"/>
<path d="M0 0 C0.71414063 0.97453125 1.42828125 1.9490625 2.1640625 2.953125 C5.9649793 8.09741441 9.83864275 13.17300853 13.7890625 18.203125 C14.06621094 17.59597656 14.34335937 16.98882812 14.62890625 16.36328125 C16.18882728 13.45878182 18.46783967 11.52434783 20.7890625 9.203125 C21.2840625 7.718125 21.2840625 7.718125 21.7890625 6.203125 C22.4490625 6.203125 23.1090625 6.203125 23.7890625 6.203125 C24.05589844 5.64109375 24.32273437 5.0790625 24.59765625 4.5 C26.79389032 0.26594875 29.21850145 -3.59475833 32.7890625 -6.796875 C35.93138488 -7.59637087 38.63405121 -7.51453851 41.7890625 -6.796875 C43.49428143 -5.09165607 42.95784791 -2.87586413 42.99438477 -0.54272461 C43.0243026 1.13890526 43.0243026 1.13890526 43.05482483 2.85450745 C43.07153732 4.0742778 43.08824982 5.29404816 43.10546875 6.55078125 C43.12624985 7.79234482 43.14703094 9.03390839 43.16844177 10.31309509 C43.22289859 13.61911623 43.27310455 16.92514745 43.32128906 20.23126221 C43.37146106 23.60279991 43.42716951 26.97424553 43.48242188 30.34570312 C43.58976288 36.96477051 43.69150448 43.5839066 43.7890625 50.203125 C38.84245881 51.09351366 35.91544359 51.05752185 30.7890625 50.203125 C30.2940625 32.878125 30.2940625 32.878125 29.7890625 15.203125 C27.8090625 17.843125 25.8290625 20.483125 23.7890625 23.203125 C23.0259375 24.13125 22.2628125 25.059375 21.4765625 26.015625 C19.61275076 28.18360105 19.61275076 28.18360105 18.7890625 31.203125 C18.1290625 31.203125 17.4690625 31.203125 16.7890625 31.203125 C16.4590625 32.193125 16.1290625 33.183125 15.7890625 34.203125 C12.57017769 33.9348846 11.13026477 33.5553338 8.8515625 31.203125 C6.57626565 27.89360231 4.34206272 24.56072897 2.15625 21.19140625 C0.80633808 19.09906239 0.80633808 19.09906239 -1.2109375 17.203125 C-1.8709375 16.543125 -2.5309375 15.883125 -3.2109375 15.203125 C-3.2109375 26.753125 -3.2109375 38.303125 -3.2109375 50.203125 C-5.5905987 51.3929556 -7.12579485 51.33662466 -9.7734375 51.328125 C-10.98193359 51.33199219 -10.98193359 51.33199219 -12.21484375 51.3359375 C-14.2109375 51.203125 -14.2109375 51.203125 -15.2109375 50.203125 C-15.33931056 48.46019645 -15.39935646 46.71218617 -15.43212891 44.96484375 C-15.45530182 43.84698486 -15.47847473 42.72912598 -15.50234985 41.57739258 C-15.5221994 40.36075928 -15.54204895 39.14412598 -15.5625 37.890625 C-15.58565277 36.65143311 -15.60880554 35.41224121 -15.63265991 34.13549805 C-15.68038328 31.5092867 -15.72609222 28.88312881 -15.76855469 26.25683594 C-15.82339309 22.88371431 -15.88721494 19.51083335 -15.95372963 16.13792419 C-16.01572943 12.93057618 -16.07002499 9.72309996 -16.125 6.515625 C-16.14889801 5.2989917 -16.17279602 4.0823584 -16.19741821 2.82885742 C-16.2142868 1.71099854 -16.2311554 0.59313965 -16.24853516 -0.55859375 C-16.26550446 -1.54819092 -16.28247375 -2.53778809 -16.29995728 -3.55737305 C-16.2109375 -5.796875 -16.2109375 -5.796875 -15.2109375 -6.796875 C-7.00692606 -8.71114434 -5.23322902 -6.62012716 0 0 Z M-4.2109375 12.203125 C-3.2109375 14.203125 -3.2109375 14.203125 -3.2109375 14.203125 Z " fill="#020202" transform="translate(331.2109375,215.796875)"/>
<path d="M0 0 C7.33040702 3.75201096 7.33040702 3.75201096 9.046875 7.36328125 C9.44132812 8.5853125 9.44132812 8.5853125 9.84375 9.83203125 C10.38 10.76015625 10.91625 11.68828125 11.46875 12.64453125 C13.23006828 16.72758727 13.14311473 19.41640151 12.84375 23.83203125 C10.9206611 25.75512015 7.37304515 25.08524963 4.74609375 25.1484375 C4.03723526 25.1692186 3.32837677 25.18999969 2.59803772 25.21141052 C0.32587695 25.27697723 -1.94640264 25.33582355 -4.21875 25.39453125 C-5.75587183 25.43770974 -7.2929815 25.4813238 -8.83007812 25.52539062 C-12.6053459 25.63266574 -16.3807336 25.73391262 -20.15625 25.83203125 C-17.49296706 30.68048963 -17.49296706 30.68048963 -13.15625 33.83203125 C-10.02890154 33.97628164 -7.1697545 33.68980781 -4.15625 32.83203125 C-3.5375 32.15140625 -2.91875 31.47078125 -2.28125 30.76953125 C0.98533146 27.79117757 4.31464441 28.53515303 8.578125 28.69140625 C9.32578125 28.7378125 10.0734375 28.78421875 10.84375 28.83203125 C10.38828941 33.72823256 9.33272047 36.34306078 5.84375 39.83203125 C-0.36807844 44.39582358 -7.09792466 45.51310683 -14.73828125 44.484375 C-20.71133103 42.872906 -25.87874306 39.05176452 -29.15625 33.83203125 C-32.84227595 26.42806571 -33.04576613 20.05526421 -30.65625 12.20703125 C-28.09927728 5.64625783 -23.98670248 2.61957574 -17.75390625 -0.2890625 C-11.87426515 -2.27841475 -5.80817023 -2.14931052 0 0 Z M-17.15625 10.83203125 C-17.48625 11.82203125 -17.81625 12.81203125 -18.15625 13.83203125 C-18.81625 13.83203125 -19.47625 13.83203125 -20.15625 13.83203125 C-20.15625 14.49203125 -20.15625 15.15203125 -20.15625 15.83203125 C-13.22625 15.83203125 -6.29625 15.83203125 0.84375 15.83203125 C-0.54602613 10.96782062 -0.54602613 10.96782062 -3.07421875 9.58203125 C-8.90235771 7.65603696 -11.87594362 7.53183976 -17.15625 10.83203125 Z " fill="#020202" transform="translate(485.15625,223.16796875)"/>
<path d="M0 0 C1 1 1 1 1.11352539 3.50024414 C1.10828857 4.58426514 1.10305176 5.66828613 1.09765625 6.78515625 C1.09443359 7.95498047 1.09121094 9.12480469 1.08789062 10.33007812 C1.07951172 11.56177734 1.07113281 12.79347656 1.0625 14.0625 C1.05798828 15.29806641 1.05347656 16.53363281 1.04882812 17.80664062 C1.03699608 20.87114117 1.02051173 23.93554721 1 27 C-2.08211457 28.78809701 -4.32995975 29.25609123 -7.87890625 29.265625 C-9.26045898 29.26949219 -9.26045898 29.26949219 -10.66992188 29.2734375 C-11.62447266 29.26570313 -12.57902344 29.25796875 -13.5625 29.25 C-14.52091797 29.25773437 -15.47933594 29.26546875 -16.46679688 29.2734375 C-17.38654297 29.27085937 -18.30628906 29.26828125 -19.25390625 29.265625 C-20.09252197 29.26336914 -20.9311377 29.26111328 -21.79516602 29.25878906 C-24 29 -24 29 -27 27 C-26.34 22.71 -25.68 18.42 -25 14 C-24.34 14 -23.68 14 -23 14 C-22.5978125 12.7934375 -22.5978125 12.7934375 -22.1875 11.5625 C-21.795625 10.716875 -21.40375 9.87125 -21 9 C-20.01 8.67 -19.02 8.34 -18 8 C-17.67 7.01 -17.34 6.02 -17 5 C-15.29296875 3.8671875 -15.29296875 3.8671875 -13.1875 2.875 C-12.50042969 2.54242188 -11.81335937 2.20984375 -11.10546875 1.8671875 C-7.34099258 0.31669824 -4.07667486 -0.2203608 0 0 Z " fill="#010101" transform="translate(75,254)"/>
<path d="M0 0 C0.16972821 4.35558768 0.33002215 8.71139832 0.48217773 13.06762695 C0.53502452 14.54460623 0.5902962 16.02150108 0.64819336 17.49829102 C0.98242397 26.06912641 1.09807982 34.46612212 0 43 C-3.4151601 43.72199693 -6.49943869 44.19447563 -10 44 C-11 43 -11 43 -11.12025452 41.24729919 C-11.11803391 40.48562943 -11.11581329 39.72395966 -11.11352539 38.93920898 C-11.11344986 38.07839218 -11.11337433 37.21757538 -11.11329651 36.33067322 C-11.10813522 35.39526199 -11.10297394 34.45985077 -11.09765625 33.49609375 C-11.0962413 32.54307877 -11.09482635 31.59006378 -11.09336853 30.60816956 C-11.08775152 27.55124835 -11.07519616 24.49439923 -11.0625 21.4375 C-11.05748719 19.37044376 -11.05292391 17.30338638 -11.04882812 15.23632812 C-11.03777656 10.15752412 -11.02050055 5.0787743 -11 0 C-9.54263913 -0.19491452 -8.08405407 -0.38069358 -6.625 -0.5625 C-5.81289062 -0.66691406 -5.00078125 -0.77132812 -4.1640625 -0.87890625 C-2 -1 -2 -1 0 0 Z " fill="#010101" transform="translate(211,223)"/>
<path d="M0 0 C2.45030794 1.5518617 2.89710208 2.71335578 3.875 5.4375 C4 8 4 8 2.8125 10.25 C0.69632907 12.29319952 -0.05692734 12.91824798 -3 13 C-5.44705193 12.16673663 -7.66074494 11.12464185 -10 10 C-10.35915493 3.65492958 -10.35915493 3.65492958 -8.9375 1.0625 C-5.88023824 -0.6140629 -3.4093712 -0.36528977 0 0 Z " fill="#030303" transform="translate(209,205)"/>
<path d="M0 0 C2 1 2 1 2 1 Z " fill="#000000" transform="translate(442,210)"/>
<path d="" fill="#000000" transform="translate(0,0)"/>
<path d="" fill="#000000" transform="translate(0,0)"/>
<path d="" fill="#000000" transform="translate(0,0)"/>
<path d="" fill="#000000" transform="translate(0,0)"/>
<path d="" fill="#000000" transform="translate(0,0)"/>
<path d="" fill="#000000" transform="translate(0,0)"/>
<path d="" fill="#000000" transform="translate(0,0)"/>
<path d="" fill="#000000" transform="translate(0,0)"/>
<path d="" fill="#000000" transform="translate(0,0)"/>
<path d="" fill="#000000" transform="translate(0,0)"/>
<path d="" fill="#000000" transform="translate(0,0)"/>
<path d="" fill="#000000" transform="translate(0,0)"/>
<path d="" fill="#000000" transform="translate(0,0)"/>
<path d="" fill="#000000" transform="translate(0,0)"/>
<path d="" fill="#000000" transform="translate(0,0)"/>
<path d="" fill="#000000" transform="translate(0,0)"/>
<path d="" fill="#000000" transform="translate(0,0)"/>
<path d="" fill="#000000" transform="translate(0,0)"/>
<path d="" fill="#171717" transform="translate(0,0)"/>
<path d="" fill="#000000" transform="translate(0,0)"/>
<path d="" fill="#000000" transform="translate(0,0)"/>
<path d="" fill="#000000" transform="translate(0,0)"/>
<path d="" fill="#000000" transform="translate(0,0)"/>
<path d="" fill="#000000" transform="translate(0,0)"/>
<path d="" fill="#000000" transform="translate(0,0)"/>
<path d="" fill="#000000" transform="translate(0,0)"/>
<path d="" fill="#000000" transform="translate(0,0)"/>
<path d="" fill="#000000" transform="translate(0,0)"/>
<path d="" fill="#000000" transform="translate(0,0)"/>
<path d="" fill="#000000" transform="translate(0,0)"/>
<path d="" fill="#000000" transform="translate(0,0)"/>
<path d="" fill="#000000" transform="translate(0,0)"/>
<path d="" fill="#141414" transform="translate(0,0)"/>
<path d="" fill="#000000" transform="translate(0,0)"/>
<path d="" fill="#000000" transform="translate(0,0)"/>
<path d="" fill="#000000" transform="translate(0,0)"/>
<path d="" fill="#000000" transform="translate(0,0)"/>
<path d="" fill="#000000" transform="translate(0,0)"/>
<path d="" fill="#000000" transform="translate(0,0)"/>
<path d="" fill="#000000" transform="translate(0,0)"/>
<path d="" fill="#000000" transform="translate(0,0)"/>
<path d="" fill="#000000" transform="translate(0,0)"/>
<path d="" fill="#000000" transform="translate(0,0)"/>
<path d="" fill="#000000" transform="translate(0,0)"/>
<path d="" fill="#000000" transform="translate(0,0)"/>
<path d="" fill="#000000" transform="translate(0,0)"/>
<path d="" fill="#000000" transform="translate(0,0)"/>
<path d="" fill="#000000" transform="translate(0,0)"/>
<path d="" fill="#000000" transform="translate(0,0)"/>
<path d="" fill="#000000" transform="translate(0,0)"/>
<path d="" fill="#000000" transform="translate(0,0)"/>
<path d="" fill="#000000" transform="translate(0,0)"/>
<path d="" fill="#000000" transform="translate(0,0)"/>
<path d="" fill="#000000" transform="translate(0,0)"/>
<path d="" fill="#000000" transform="translate(0,0)"/>
<path d="" fill="#000000" transform="translate(0,0)"/>
<path d="" fill="#000000" transform="translate(0,0)"/>
<path d="" fill="#000000" transform="translate(0,0)"/>
<path d="" fill="#000000" transform="translate(0,0)"/>
<path d="" fill="#000000" transform="translate(0,0)"/>
<path d="" fill="#000000" transform="translate(0,0)"/>
<path d="" fill="#000000" transform="translate(0,0)"/>
<path d="" fill="#000000" transform="translate(0,0)"/>
<path d="" fill="#000000" transform="translate(0,0)"/>
<path d="" fill="#000000" transform="translate(0,0)"/>
<path d="" fill="#000000" transform="translate(0,0)"/>
<path d="" fill="#000000" transform="translate(0,0)"/>
<path d="" fill="#000000" transform="translate(0,0)"/>
<path d="" fill="#000000" transform="translate(0,0)"/>
<path d="" fill="#000000" transform="translate(0,0)"/>
<path d="" fill="#000000" transform="translate(0,0)"/>
<path d="" fill="#000000" transform="translate(0,0)"/>
<path d="" fill="#000000" transform="translate(0,0)"/>
<path d="" fill="#000000" transform="translate(0,0)"/>
<path d="" fill="#000000" transform="translate(0,0)"/>
<path d="" fill="#000000" transform="translate(0,0)"/>
<path d="" fill="#0D0D0D" transform="translate(0,0)"/>
<path d="" fill="#000000" transform="translate(0,0)"/>
<path d="" fill="#000000" transform="translate(0,0)"/>
<path d="" fill="#000000" transform="translate(0,0)"/>
<path d="" fill="#000000" transform="translate(0,0)"/>
<path d="" fill="#000000" transform="translate(0,0)"/>
</svg>
