<?xml version="1.0" encoding="UTF-8"?>
<svg version="1.1" xmlns="http://www.w3.org/2000/svg" width="500" height="500">
<path d="M0 0 C0.71244873 -0.00014603 1.42489746 -0.00029205 2.15893555 -0.0004425 C4.51264496 0.00025388 6.86627513 0.00803347 9.2199707 0.01586914 C10.8523606 0.01773429 12.48475106 0.01915774 14.11714172 0.02015686 C18.4128677 0.02397438 22.70855985 0.03379815 27.00427246 0.04486084 C31.38801618 0.0550914 35.77176536 0.05965801 40.15551758 0.06469727 C48.75644456 0.07542109 57.35734405 0.09248834 65.95825195 0.11352539 C66.09218534 18.28852108 60.44505079 33.94120776 48.95825195 48.11352539 C48.14420898 49.17313477 48.14420898 49.17313477 47.3137207 50.25415039 C35.45862778 64.90716062 17.24410244 73.12770193 -1.04174805 76.11352539 C-4.01174805 76.11352539 -6.98174805 76.11352539 -10.04174805 76.11352539 C-10.04174805 51.36352539 -10.04174805 26.61352539 -10.04174805 1.11352539 C-6.50992447 -0.06374913 -3.72838543 -0.00641719 0 0 Z " fill="#FEFEFE" transform="translate(10.041748046875,205.886474609375)"/>
<path d="M0 0 C31.86486486 0 31.86486486 0 39 6 C43.05309695 11.47715804 43.72924109 16.27164101 44 23 C44.66 22.0925 45.32 21.185 46 20.25 C49.6896376 15.88857964 53.83244387 13.43572256 59.52734375 12.65234375 C66.71884154 12.40361525 71.41824239 14.49165732 77 19 C77 17.35 77 15.7 77 14 C80.3 14 83.6 14 87 14 C87 28.19 87 42.38 87 57 C83.7 57 80.4 57 77 57 C76.505 55.02 76.505 55.02 76 53 C74.948125 53.928125 74.948125 53.928125 73.875 54.875 C68.43643154 58.89481147 63.95050151 59.39028281 57.39453125 58.53515625 C51.213112 57.15366451 47.58435537 52.87870592 44 48 C42.17994239 44.20498625 41.65092627 40.87238176 41.375 36.6875 C41.30023438 35.61886719 41.22546875 34.55023438 41.1484375 33.44921875 C41.09945312 32.64097656 41.05046875 31.83273438 41 31 C40.46375 31.763125 39.9275 32.52625 39.375 33.3125 C35.04118004 38.21655943 30.3825523 39.49344823 24 40 C19.66282063 40.0711013 15.33852186 40.04472703 11 40 C11 45.61 11 51.22 11 57 C7.37 57 3.74 57 0 57 C0 38.19 0 19.38 0 0 Z M11 10 C11 16.27 11 22.54 11 29 C13.536875 29.103125 16.07375 29.20625 18.6875 29.3125 C19.47729248 29.35802002 20.26708496 29.40354004 21.08081055 29.45043945 C25.19692692 29.5311068 26.60685879 29.31472071 29.95703125 26.6328125 C32.13179729 23.83015034 33 22.5326999 33 19 C31.775357 15.39810884 30.61589993 13.48623679 27.625 11.125 C22.04674255 9.39381665 16.8251735 9.82167836 11 10 Z M54.25 27.625 C52.32113445 31.28984454 51.87837481 34.87905228 52 39 C53.46918931 43.17559068 55.07492982 45.86924762 59 48 C62.81878202 49.18806552 64.75630434 49.07142804 68.625 47.9375 C72.59341292 45.65933703 74.07885521 44.14967274 76 40 C76.84530606 35.96458238 76.80911776 32.63960845 74.96484375 28.90234375 C72.28828565 25.27146967 69.92371954 23.5801917 65.4375 22.875 C60.42881631 22.69822293 57.86730936 24.26606988 54.25 27.625 Z " fill="#FCFCFC" transform="translate(108,209)"/>
<path d="M0 0 C3.64546735 2.11092771 5.66370757 4.57741515 7.5625 8.375 C7.5625 9.695 7.5625 11.015 7.5625 12.375 C3.9325 12.375 0.3025 12.375 -3.4375 12.375 C-3.7675 11.385 -4.0975 10.395 -4.4375 9.375 C-7.17655345 8.00547327 -9.40837332 8.24878639 -12.4375 8.375 C-13.4275 8.87 -13.4275 8.87 -14.4375 9.375 C-14.1075 11.025 -13.7775 12.675 -13.4375 14.375 C-11.77460938 14.75591797 -11.77460938 14.75591797 -10.078125 15.14453125 C-8.6144633 15.49168178 -7.15092813 15.83936615 -5.6875 16.1875 C-4.95789063 16.35314453 -4.22828125 16.51878906 -3.4765625 16.68945312 C0.49968044 17.6473662 3.47050089 18.53524292 6.5625 21.375 C6.89121094 20.08916016 6.89121094 20.08916016 7.2265625 18.77734375 C9.65243384 10.03040114 11.87826374 4.16752546 19.8125 -0.5625 C25.14651947 -2.07380552 30.44576455 -2.87620302 35.72265625 -0.7578125 C37.83129178 0.4285656 39.84107402 1.65357402 41.5625 3.375 C41.8925 2.055 42.2225 0.735 42.5625 -0.625 C46.1925 -0.625 49.8225 -0.625 53.5625 -0.625 C53.5625 13.565 53.5625 27.755 53.5625 42.375 C49.9325 42.375 46.3025 42.375 42.5625 42.375 C42.2325 41.385 41.9025 40.395 41.5625 39.375 C40.758125 40.014375 39.95375 40.65375 39.125 41.3125 C34.46602782 44.37473523 29.59835743 44.97723513 24.16015625 43.8984375 C18.34522284 42.13750925 14.16237252 39.80239278 10.75 34.625 C10.1621875 33.51125 10.1621875 33.51125 9.5625 32.375 C9.170625 33.2825 8.77875 34.19 8.375 35.125 C5.76146592 39.81133696 3.20099517 41.76814994 -1.8125 43.625 C-8.84359163 45.07970861 -15.02031681 44.68258625 -21.4375 41.375 C-25.11064051 38.33833269 -27.13363739 35.56874598 -28.3125 30.9375 C-28.35375 30.091875 -28.395 29.24625 -28.4375 28.375 C-24.72993911 28.09173983 -21.13447887 27.91561209 -17.4375 28.375 C-15.375 30.8125 -15.375 30.8125 -14.4375 33.375 C-12.03204362 34.57772819 -10.48753047 34.47571472 -7.8125 34.4375 C-6.58660156 34.42396484 -6.58660156 34.42396484 -5.3359375 34.41015625 C-4.70945313 34.39855469 -4.08296875 34.38695312 -3.4375 34.375 C-3.4375 32.395 -3.4375 30.415 -3.4375 28.375 C-6.67289082 26.55945695 -9.75842264 25.77530662 -13.375 25 C-19.02424754 23.62381302 -22.62744601 22.25463135 -25.8125 17.1875 C-26.72649258 13.07453337 -26.58010578 9.43677927 -25.4375 5.375 C-19.36451486 -2.55361949 -8.96153731 -4.02765722 0 0 Z M19.5625 14.375 C17.97950415 19.12398755 18.01042104 22.93959472 19.8125 27.625 C22.24631941 31.44957337 24.05570427 32.90621911 28.375 34.25 C32.51661428 34.41241625 34.94665362 33.35348198 38.5625 31.375 C41.5492346 28.18914976 42.46376808 25.42155839 42.875 21.0625 C42.50040854 16.64232079 41.39864013 14.74770719 38.5625 11.375 C35.77772413 9.17649274 34.08482202 8.44029025 30.5625 8 C25.91516917 8.58091635 22.54485636 10.79617237 19.5625 14.375 Z " fill="#FCFCFC" transform="translate(241.4375,223.625)"/>
<path d="M0 0 C3.63 0 7.26 0 11 0 C11 3.96 11 7.92 11 12 C14.96 12 18.92 12 23 12 C23 15.3 23 18.6 23 22 C19.04 22 15.08 22 11 22 C11.14012137 25.64613696 11.28681398 29.29179789 11.4375 32.9375 C11.47681641 33.97841797 11.51613281 35.01933594 11.55664062 36.09179688 C11.59853516 37.08115234 11.64042969 38.07050781 11.68359375 39.08984375 C11.72025146 40.00628662 11.75690918 40.92272949 11.79467773 41.86694336 C11.77003864 43.9820728 11.77003864 43.9820728 13 45 C14.68183948 45.23287008 16.3712416 45.41264166 18.0625 45.5625 C18.98160156 45.64628906 19.90070313 45.73007812 20.84765625 45.81640625 C21.91306641 45.90728516 21.91306641 45.90728516 23 46 C23 48.97 23 51.94 23 55 C7.96899187 55.8605539 7.96899187 55.8605539 4.1875 52.8125 C0.79916026 48.45606319 -0.25665137 44.970298 -0.1953125 39.48046875 C-0.18886719 38.45888672 -0.18242187 37.43730469 -0.17578125 36.38476562 C-0.15902344 35.32966797 -0.14226562 34.27457031 -0.125 33.1875 C-0.11597656 32.11306641 -0.10695313 31.03863281 -0.09765625 29.93164062 C-0.07415306 27.28753146 -0.04129575 24.64388128 0 22 C-2.97 22 -5.94 22 -9 22 C-9 32.89 -9 43.78 -9 55 C-12.3 55 -15.6 55 -19 55 C-19.495 53.02 -19.495 53.02 -20 51 C-21.051875 51.928125 -21.051875 51.928125 -22.125 52.875 C-27.33787166 56.7279921 -31.55710183 57.40030224 -37.83203125 56.46484375 C-43.64366718 55.21874524 -46.92987449 52.36312862 -50.703125 48.01171875 C-54.84068436 41.59351673 -54.70350469 34.35974136 -54 27 C-52.26216951 20.31265228 -47.51458677 15.90663745 -42 12 C-36.04890913 10.01630304 -30.08558324 10.12365348 -24.4375 12.9375 C-21.30275229 14.69724771 -21.30275229 14.69724771 -20 16 C-19.67 14.68 -19.34 13.36 -19 12 C-12.73 12 -6.46 12 0 12 C0 8.04 0 4.08 0 0 Z M-41 25 C-43.9835054 29.47525809 -43.71912822 33.75635675 -43 39 C-41.24017249 42.9910374 -38.56117732 44.74019568 -34.625 46.5625 C-30.06909747 47.1123503 -27.93995029 46.30449923 -24 44 C-21.31216362 41.72567691 -20.1873388 40.15493402 -19.62109375 36.6640625 C-19.35640956 30.9776216 -20.06732893 27.36963452 -24 23 C-29.73765719 18.64729454 -35.90640318 20.8540491 -41 25 Z " fill="#FCFCFC" transform="translate(431,211)"/>
<path d="M0 0 C10 0 10 0 12.34106445 1.64892578 C12.843396 2.4067334 13.34572754 3.16454102 13.86328125 3.9453125 C14.44013672 4.77546875 15.01699219 5.605625 15.61132812 6.4609375 C16.17271484 7.34007812 16.73410156 8.21921875 17.3125 9.125 C18.47392464 10.83684454 19.63665848 12.54780165 20.80078125 14.2578125 C21.61023193 15.47839355 21.61023193 15.47839355 22.43603516 16.72363281 C24.45160917 19.65732187 26.6593788 22.32124028 29 25 C30.03345357 23.66233567 31.06651597 22.32436779 32.09790039 20.98510742 C32.9985683 19.81852334 33.90276827 18.65465852 34.81030273 17.4934082 C37.10112259 14.5461289 39.30718101 11.58922626 41.3515625 8.46484375 C46.81492213 0.3663301 46.81492213 0.3663301 50.52734375 -0.78125 C52.86197633 -0.81075563 54.76511405 -0.66348177 57 0 C58 1 58 1 58.12025452 3.24623108 C58.11803391 4.23884445 58.11581329 5.23145782 58.11352539 6.25415039 C58.11344986 7.37523697 58.11337433 8.49632355 58.11329651 9.65138245 C58.10813522 10.8711528 58.10297394 12.09092316 58.09765625 13.34765625 C58.0962413 14.58921982 58.09482635 15.83078339 58.09336853 17.10997009 C58.08870591 20.41605491 58.07971497 23.72207146 58.06866455 27.02813721 C58.05844827 30.3996115 58.05387045 33.77109283 58.04882812 37.14257812 C58.03777395 43.76174018 58.0204966 50.38086071 58 57 C54.37 57 50.74 57 47 57 C46.93941406 55.23914063 46.87882812 53.47828125 46.81640625 51.6640625 C46.73193728 49.31770234 46.64729253 46.97134849 46.5625 44.625 C46.52318359 43.46871094 46.48386719 42.31242187 46.44335938 41.12109375 C46.19577173 34.37909185 45.78053875 27.70209838 45 21 C43.41545708 23.20747392 41.83233947 25.41594742 40.25 27.625 C39.8065625 28.24246094 39.363125 28.85992187 38.90625 29.49609375 C36.19492438 33.28397513 33.561826 37.1093764 31 41 C28.01409583 40.6717285 26.41957497 40.41693355 24.25488281 38.26586914 C23.74280273 37.52973389 23.23072266 36.79359863 22.703125 36.03515625 C22.13722656 35.23529297 21.57132812 34.43542969 20.98828125 33.61132812 C20.12783203 32.3496582 20.12783203 32.3496582 19.25 31.0625 C18.66089844 30.22525391 18.07179688 29.38800781 17.46484375 28.52539062 C13.25611481 22.51222963 13.25611481 22.51222963 12 20 C11.67 32.21 11.34 44.42 11 57 C7.37 57 3.74 57 0 57 C0 38.19 0 19.38 0 0 Z " fill="#FCFCFC" transform="translate(316,209)"/>
<path d="M0 0 C6.00851784 3.51418426 9.53821247 7.61281372 11.625 14.3125 C11.625 17.6125 11.625 20.9125 11.625 24.3125 C1.065 24.3125 -9.495 24.3125 -20.375 24.3125 C-18.27422838 31.05951549 -18.27422838 31.05951549 -15.0625 32.75 C-11.89570196 33.41281819 -9.60124715 33.77339245 -6.375 33.3125 C-4.98826843 32.02251714 -3.60239348 30.7315005 -2.23046875 29.42578125 C1.58911963 27.13402822 6.3283268 27.96846033 10.625 28.3125 C9.82863435 33.76526242 7.54672082 36.58455833 3.625 40.3125 C-1.82430845 44.02793758 -8.3054303 44.99518026 -14.7734375 43.91015625 C-21.20518804 42.05526574 -26.35014091 38.88895229 -29.6953125 32.98046875 C-32.99837605 25.46195697 -33.47799335 19.83587345 -30.6875 12.125 C-27.90479667 5.79362273 -23.92941804 1.93199513 -17.6796875 -0.95703125 C-11.75795777 -2.83391847 -5.64422348 -2.60912218 0 0 Z M-19.3125 11.875 C-20.57313035 13.28263476 -20.57313035 13.28263476 -20.375 15.3125 C-13.445 15.3125 -6.515 15.3125 0.625 15.3125 C-1.60313379 10.85623242 -3.08722521 9.17814451 -7.6875 7.4375 C-12.19460193 7.22786735 -15.84358159 9.07748515 -19.3125 11.875 Z " fill="#FCFCFC" transform="translate(485.375,223.6875)"/>
<path d="M0 0 C0 8.91 0 17.82 0 27 C-8.91 27 -17.82 27 -27 27 C-28.56413497 22.30759508 -27.07268459 18.23302046 -24.99609375 13.91015625 C-21.31434266 7.57948853 -16.23334201 2.04017339 -9 0 C-5.36487444 -0.79972762 -3.56074593 -1.18691531 0 0 Z " fill="#FEFEFE" transform="translate(76,255)"/>
<path d="M0 0 C3.63 0 7.26 0 11 0 C11 14.19 11 28.38 11 43 C7.37 43 3.74 43 0 43 C0 28.81 0 14.62 0 0 Z " fill="#FDFDFD" transform="translate(200,223)"/>
<path d="M0 0 C3.4375 0.75 3.4375 0.75 5.4375 2.75 C5.7642107 5.82108055 5.91888276 7.90050101 4.375 10.625 C1.3305714 12.39273274 -1.1256012 12.11823916 -4.5625 11.75 C-6.5625 10.6875 -6.5625 10.6875 -7.5625 8.75 C-7.4375 5.1875 -7.4375 5.1875 -6.5625 1.75 C-3.5625 -0.25 -3.5625 -0.25 0 0 Z " fill="#FAFAFA" transform="translate(206.5625,205.25)"/>
</svg>
